# xmcd
# 
# Track frame offsets:
#     183
#     16390
#     33243
#     49025
#     63355
#     95325
#     115488
#     137918
#     156925
#     171755
#     186858
#     213675
# 
# Disc length: 3046
# 
# Revision: 4
# Processed by: cddbd v1.5.2PL0 Copyright (c) Steve Scherf et al.
# Submitted via: fre:ac v1.0.31
# 
DISCID=a80be40c
DTITLE=Grant and Fortsyte - Country Christmas
DYEAR=1990
DGENRE=Country
TTITLE0=01-the greatest gift off all
TTITLE1=02-white christmas
TTITLE2=03-it's gonna be a cold cold christmas
TTITLE3=04-mary's boy child
TTITLE4=05-medley
TTITLE5=06-tennessee christmas
TTITLE6=07-little drummer boy
TTITLE7=08-have yourself a merry little christmas
TTITLE8=09-it must be christmas
TTITLE9=10-when a child is born
TTITLE10=11-medley 2
TTITLE11=12-christmas song
EXTD=YEAR: 1990 ID3G:   2
EXTT0=
EXTT1=
EXTT2=
EXTT3=
EXTT4=
EXTT5=
EXTT6=
EXTT7=
EXTT8=
EXTT9=
EXTT10=
EXTT11=
PLAYORDER=
